# xmcd CD database file
#
# Track frame offsets:
#	150
#	25715
#	48219
#	66384
#	88315
#	108257
#	129089
#	155559
#	176596
#	196042
#
# Disc length: 2891 seconds
#
# Revision: 3
# Processed by: cddbd v1.5.2PL0 Copyright (c) Steve Scherf et al.
# Submitted via: CDex 1.70beta3
#
DISCID=7a0b490a
DTITLE=樹里からん - She-loves jazz
DYEAR=2009
DGENRE=Pop
TTITLE0=For the love of you
TTITLE1=My heart will go on
TTITLE2=She
TTITLE3=Englishman in NewYork
TTITLE4=Now you are not here
TTITLE5=Against all odds
TTITLE6=Cant's take my eyes off you
TTITLE7=Time after time
TTITLE8=Unchained melody
TTITLE9=I will always love you
EXTD=YEAR: 2009
EXTT0=
EXTT1=
EXTT2=
EXTT3=
EXTT4=
EXTT5=
EXTT6=
EXTT7=
EXTT8=
EXTT9=
PLAYORDER=
